<?xml version="1.0" encoding="UTF-8"?>
<svg width="246px" height="85px" viewBox="0 0 246 85" version="1.1" xmlns="http://www.w3.org/2000/svg" xmlns:xlink="http://www.w3.org/1999/xlink">
    <!-- Generator: Sketch 50.2 (55047) - http://www.bohemiancoding.com/sketch -->
    <title>bisq_logo_green</title>
    <desc>Created with Sketch.</desc>
    <defs></defs>
    <g id="bisq_logo_green" stroke="none" stroke-width="1" fill="none" fill-rule="evenodd">
        <g id="bisq_mark" fill="#25B135" fill-rule="nonzero">
            <path d="M65.2888753,18.188908 C68.030303,23.8660536 68.6125468,25.0385385 70.7146039,30.8117984 C71.9215442,34.4388409 69.5039951,39.8109082 59.5366491,35.2444879 C52.4380791,32.0218998 47.3021629,29.7386897 51.5319568,24.3666223 C53.5933056,21.7598842 55.9270681,19.3321537 58.5021288,17.1157992 C61.2424242,14.8364654 62.9393939,13.3999401 65.2888753,18.188908 Z M62.9321574,54.5520286 C68.1200634,49.6626759 75.3282139,55.1325928 70.2931932,61.6957779 C60.1486168,74.9861618 42.4384534,80.2860724 26.5693664,74.9458778 C10.7002794,69.6056833 -0.0028039292,55.004203 0.000342448315,38.3010702 C-0.039650988,28.2940622 3.42404869,19.9437454 10.0421783,12.4219687 C16.4125822,5.59064349 25.8962864,0.116885638 35.2497356,0 C48.3978667,0 54.2720576,11.0222204 49.6413334,17.1686415 C44.4670172,24.0028926 38.4501334,23.4472073 33.9756918,20.5163064 C33.9756918,20.5163064 27.8195126,16.3317253 26.0018769,14.9357355 C23.2023782,12.8451391 20.1242886,12.8451391 19.0065276,16.192804 C17.0495964,22.1901388 16.0711309,25.957956 14.532086,31.9552908 C13.8160938,34.9727506 13.4411705,38.0606851 13.414325,41.1613691 C13.4464605,46.8693634 16.069943,52.255484 20.5489698,55.8090971 C23.64171,58.5929695 26.963658,61.1125918 30.4797159,63.341343 C33.310641,65.1922618 36.6081416,66.2082179 39.9925756,66.2722439 L40.2711665,66.2722439 C43.6556005,66.2082179 46.9531012,65.1922618 49.7840262,63.341343 C54.3563709,60.7040781 58.7486809,57.7678894 62.9321574,54.5520286 Z M25.8619208,47.6404135 C24.0737929,46.9853919 20.025911,43.452727 21.2151029,40.8326406 C21.6925157,39.392229 25.1472483,39.0011239 26.2178104,39.0011239 C32.5341264,38.8707555 32.7713861,50.1301315 25.8619208,47.6404135 Z M37.9709188,58.6364846 C37.1641481,57.9132151 35.6845241,56.4666762 34.3388175,55.2602511 C33.9661523,54.8557439 33.8944367,54.2923324 34.1558666,53.8229554 C34.4172966,53.3535784 34.9627461,53.0664377 35.5473404,53.0904427 C37.9211094,52.9698524 40.3005905,52.9698524 42.6743594,53.0904427 C43.2250988,53.1309633 43.7017225,53.4497615 43.9019064,53.9115093 C44.1020903,54.3732572 43.9907107,54.8969375 43.6150475,55.2602511 C42.2726072,56.4666762 40.7929832,57.9132151 40.1201299,58.6364846 C39.8281825,58.8781281 39.4427521,59.0083613 39.0455244,58.9995834 C38.6482966,59.0083613 38.2628662,58.8781281 37.9709188,58.6364846 Z M52.1380792,47.6404135 C45.2286139,50.1301315 45.4658736,38.8707555 51.7821896,39.0011239 C52.8527517,39.0011239 56.1888545,39.392229 56.7848971,40.8326406 C57.974089,43.452727 53.9262071,46.9853919 52.1380792,47.6404135 Z" id="Combined-Shape"></path>
        </g>
        <g id="Group" transform="translate(88.000000, 2.000000)" fill="#25B135">
            <path d="M132.815704,54.5810086 C123.816443,54.5810086 120.609621,47.5080135 120.609621,40.8887687 C120.609621,34.3108357 123.779498,27.2879928 132.651543,27.200949 C133.387593,27.2082593 134.089707,27.2621517 134.756882,27.3605861 C134.82375,27.3714665 134.891454,27.3797969 134.957653,27.3916974 C134.996437,27.3979877 135.033883,27.4059781 135.072165,27.4126084 C135.290322,27.4537502 135.506974,27.4989722 135.720784,27.5506545 L135.721286,27.538414 C142.104003,28.952877 145.061073,34.566187 145.313332,40.0802127 L145.309487,40.0904131 C145.323195,40.3539249 145.330216,40.6199867 145.330216,40.8887687 C145.330216,48.6946664 139.950519,54.5810086 132.815704,54.5810086 M156.998514,40.3233235 C156.864945,33.5726628 154.342685,27.4143085 149.872559,22.9327388 C146.132632,19.1839018 141.313122,16.853948 136.068665,16.1973788 C136.068665,16.1973788 134.680318,16.0557625 134.334109,16.0385917 C133.892446,16.0147907 133.449111,16 133.002768,16 L132.999591,16 L132.999257,16 L132.99909,16 L132.998087,16 C126.577589,16.00034 120.585548,18.4623897 116.125955,22.9327388 C111.530619,27.539434 109,33.9164181 109,40.8887687 C109,47.8614593 111.530619,54.2384433 116.125955,58.8451386 C120.585883,63.3158277 126.578425,65.7780474 132.999591,65.7780474 C137.391314,65.7780474 141.992166,64.1548151 145.134795,61.5633896 L145.134795,82 L156.998514,82 C156.998514,82 157.001857,40.334714 156.998514,40.3233235" id="Fill-1"></path>
            <path d="M91.5327323,35.8517976 L86.7553982,34.804475 C83.624042,34.1358077 82.0725943,32.7673881 82.1442543,30.7376454 C82.2199801,28.5866374 84.6306704,27.0025022 87.7508455,27.0527163 C90.8711901,27.1031012 92.5844234,27.7960216 93.9568058,30.4836714 L103.187225,24.3990549 C100.323366,19.3933583 94.7540446,16.1091172 88.1406556,16.0025403 C83.9144091,15.9343926 79.649029,17.24013 76.4378812,19.5846501 C72.768482,22.2637602 70.6625586,26.1582563 70.5077188,30.5501112 C70.2483536,37.901865 75.129366,43.4788751 83.8993317,45.8510642 C85.2319029,46.2114443 86.9876579,46.6691783 88.7540857,47.0140159 C92.8839385,47.8138548 93.4050406,49.2994406 93.3525238,50.7855388 C93.2612124,53.3719064 90.8654302,55.0054018 87.248209,54.9471603 C83.0997211,54.8803789 79.3298624,52.7411559 77.7269144,49.2061858 L70,56.0341076 C73.0129392,62.1660347 79.1125107,65.8724841 86.8583988,65.9973362 C96.5579117,66.1536148 104.691577,59.4138239 104.989229,50.9730731 C105.258081,43.3477036 100.486337,37.9792358 91.5327323,35.8517976" id="Fill-4"></path>
            <polygon id="Fill-6" points="53 65 65 65 65 17 53 17"></polygon>
            <path d="M24.347642,54.7989099 C23.6115672,54.7915996 22.9094291,54.7377073 22.2422307,54.6392732 C22.1756947,54.6283927 22.1079886,54.6202324 22.0414526,54.6081619 C22.002835,54.6020416 21.9655548,54.5938813 21.9271044,54.587251 C21.7087729,54.5461093 21.4922803,54.5008874 21.2784625,54.4492052 L21.2781282,54.4614457 C15.8878808,53.2669756 12.9415756,49.0788498 12.0037197,44.483897 L12.0361518,44.4883172 C11.8041118,43.412682 11.6685323,42.2874048 11.6685323,41.1111254 C11.6685323,33.3052478 17.048582,27.4189208 24.1836426,27.4189208 C33.1832142,27.4189208 36.3901464,34.4918976 36.3901464,41.1111254 C36.3901464,47.6892115 33.22016,54.7118662 24.347642,54.7989099 M23.9997492,16.2219108 C19.6077082,16.2219108 15.0068647,17.845139 11.8639607,20.4365577 L11.8639607,0 L0,0 L0,41.6427377 C0,41.6678988 0.0117023018,41.6821794 0.0133740592,41.7054704 C0.153467329,48.4448932 2.66210648,54.5920112 7.12603309,59.067109 C10.8660887,62.8161064 15.6857653,65.1458842 20.9304026,65.8026217 L20.9297339,65.8279528 C21.1539166,65.8524338 21.382613,65.8650143 21.6086346,65.8847352 C21.6171606,65.8854152 21.6258537,65.8860952 21.6343797,65.8869453 C21.9762541,65.9161865 22.3189643,65.9442377 22.6650181,65.9614084 C23.1065293,65.9850394 23.5502137,65.99983 23.9964057,65.99983 C23.9964057,65.99983 23.998579,66 23.9997492,66 L24.0000836,66 L24.0004179,66 L24.0010866,66 C30.4219725,65.99949 36.4143869,63.5374466 40.8737997,59.067109 C45.4694608,54.4604257 48,48.083458 48,41.1111254 C48,34.1384528 45.4694608,27.7614851 40.8737997,23.1548018 C36.4140525,18.6841242 30.4209694,16.2219108 23.9997492,16.2219108" id="Fill-8"></path>
        </g>
    </g>
</svg>