<?xml version="1.0" encoding="UTF-8"?>
<svg width="72px" height="78px" viewBox="0 0 72 78" version="1.1" xmlns="http://www.w3.org/2000/svg" xmlns:xlink="http://www.w3.org/1999/xlink">
    <!-- Generator: Sketch 50.2 (55047) - http://www.bohemiancoding.com/sketch -->
    <title>bisq_mark_black</title>
    <desc>Created with Sketch.</desc>
    <defs></defs>
    <g id="bisq_mark_black" stroke="none" stroke-width="1" fill="none" fill-rule="evenodd">
        <path d="M65.2888753,18.188908 C68.030303,23.8660536 68.6125468,25.0385385 70.7146039,30.8117984 C71.9215442,34.4388409 69.5039951,39.8109082 59.5366491,35.2444879 C52.4380791,32.0218998 47.3021629,29.7386897 51.5319568,24.3666223 C53.5933056,21.7598842 55.9270681,19.3321537 58.5021288,17.1157992 C61.2424242,14.8364654 62.9393939,13.3999401 65.2888753,18.188908 Z M62.9321574,54.5520286 C68.1200634,49.6626759 75.3282139,55.1325928 70.2931932,61.6957779 C60.1486168,74.9861618 42.4384534,80.2860724 26.5693664,74.9458778 C10.7002794,69.6056833 -0.0028039292,55.004203 0.000342448315,38.3010702 C-0.039650988,28.2940622 3.42404869,19.9437454 10.0421783,12.4219687 C16.4125822,5.59064349 25.8962864,0.116885638 35.2497356,0 C48.3978667,0 54.2720576,11.0222204 49.6413334,17.1686415 C44.4670172,24.0028926 38.4501334,23.4472073 33.9756918,20.5163064 C33.9756918,20.5163064 27.8195126,16.3317253 26.0018769,14.9357355 C23.2023782,12.8451391 20.1242886,12.8451391 19.0065276,16.192804 C17.0495964,22.1901388 16.0711309,25.957956 14.532086,31.9552908 C13.8160938,34.9727506 13.4411705,38.0606851 13.414325,41.1613691 C13.4464605,46.8693634 16.069943,52.255484 20.5489698,55.8090971 C23.64171,58.5929695 26.963658,61.1125918 30.4797159,63.341343 C33.310641,65.1922618 36.6081416,66.2082179 39.9925756,66.2722439 L40.2711665,66.2722439 C43.6556005,66.2082179 46.9531012,65.1922618 49.7840262,63.341343 C54.3563709,60.7040781 58.7486809,57.7678894 62.9321574,54.5520286 Z M25.8619208,47.6404135 C24.0737929,46.9853919 20.025911,43.452727 21.2151029,40.8326406 C21.6925157,39.392229 25.1472483,39.0011239 26.2178104,39.0011239 C32.5341264,38.8707555 32.7713861,50.1301315 25.8619208,47.6404135 Z M37.9709188,58.6364846 C37.1641481,57.9132151 35.6845241,56.4666762 34.3388175,55.2602511 C33.9661523,54.8557439 33.8944367,54.2923324 34.1558666,53.8229554 C34.4172966,53.3535784 34.9627461,53.0664377 35.5473404,53.0904427 C37.9211094,52.9698524 40.3005905,52.9698524 42.6743594,53.0904427 C43.2250988,53.1309633 43.7017225,53.4497615 43.9019064,53.9115093 C44.1020903,54.3732572 43.9907107,54.8969375 43.6150475,55.2602511 C42.2726072,56.4666762 40.7929832,57.9132151 40.1201299,58.6364846 C39.8281825,58.8781281 39.4427521,59.0083613 39.0455244,58.9995834 C38.6482966,59.0083613 38.2628662,58.8781281 37.9709188,58.6364846 Z M52.1380792,47.6404135 C45.2286139,50.1301315 45.4658736,38.8707555 51.7821896,39.0011239 C52.8527517,39.0011239 56.1888545,39.392229 56.7848971,40.8326406 C57.974089,43.452727 53.9262071,46.9853919 52.1380792,47.6404135 Z" id="Combined-Shape" fill="#000000" fill-rule="nonzero"></path>
    </g>
</svg>