<?xml version="1.0" encoding="UTF-8" standalone="no"?>
<!-- Created with Inkscape (http://www.inkscape.org/) -->

<svg
   xmlns:dc="http://purl.org/dc/elements/1.1/"
   xmlns:cc="http://creativecommons.org/ns#"
   xmlns:rdf="http://www.w3.org/1999/02/22-rdf-syntax-ns#"
   xmlns:svg="http://www.w3.org/2000/svg"
   xmlns="http://www.w3.org/2000/svg"
   xmlns:sodipodi="http://sodipodi.sourceforge.net/DTD/sodipodi-0.dtd"
   xmlns:inkscape="http://www.inkscape.org/namespaces/inkscape"
   version="1.1"
   id="svg3753"
   xml:space="preserve"
   width="1122.52"
   height="793.70667"
   viewBox="0 0 1122.52 793.70667"
   sodipodi:docname="bisq_kitty_logo.ai.svg"
   inkscape:version="0.92.2 5c3e80d, 2017-08-06"><metadata
     id="metadata3759"><rdf:RDF><cc:Work
         rdf:about=""><dc:format>image/svg+xml</dc:format><dc:type
           rdf:resource="http://purl.org/dc/dcmitype/StillImage" /><dc:title></dc:title></cc:Work></rdf:RDF></metadata><defs
     id="defs3757"><clipPath
       clipPathUnits="userSpaceOnUse"
       id="clipPath3769"><path
         d="M 0,595.28 H 841.89 V 0 H 0 Z"
         id="path3767"
         inkscape:connector-curvature="0" /></clipPath></defs><sodipodi:namedview
     pagecolor="#ffffff"
     bordercolor="#666666"
     borderopacity="1"
     objecttolerance="10"
     gridtolerance="10"
     guidetolerance="10"
     inkscape:pageopacity="0"
     inkscape:pageshadow="2"
     inkscape:window-width="1443"
     inkscape:window-height="860"
     id="namedview3755"
     showgrid="false"
     inkscape:zoom="1"
     inkscape:cx="866.17608"
     inkscape:cy="450.80695"
     inkscape:window-x="0"
     inkscape:window-y="0"
     inkscape:window-maximized="0"
     inkscape:current-layer="g3761" /><g
     id="g3761"
     inkscape:groupmode="layer"
     inkscape:label="bisq_kitty_logo"
     transform="matrix(1.3333333,0,0,-1.3333333,0,793.70667)"><g
       id="g3771"
       transform="translate(438.0742,164.5918)"><path
         d="m 0,0 c -30.911,0 -43.036,37.511 -87.091,44.258 -22.651,3.469 -31.301,-5.706 -46.116,-5.706 -3.689,0 -10.912,5.207 -17.114,8.926 -21.626,31.966 -48.52,51.289 -81.999,52.375 -3.057,15.237 -13.492,67.948 -13.492,67.948 0,0 57.715,-10.913 88.718,-49.625 19.641,-24.528 96.747,-22.806 96.747,-22.806 L -2.049,18.273 C -2.049,18.273 4.445,0 0,0"
         style="fill:#c2c3c5;fill-opacity:1;fill-rule:nonzero;stroke:none"
         id="path3773"
         inkscape:connector-curvature="0" /></g><g
       id="g3775"
       transform="translate(333.2378,278.3018)"><path
         d="m 0,0 c 0.725,0 1.36,0.382 1.718,0.954 2.719,4.315 6.379,7.994 10.656,10.771 l -0.001,-10e-4 c 0.538,0.341 0.622,1.493 -0.572,1.71 h 0.004 c -3.837,0.667 -7.78,1.02 -11.804,1.02 -4.025,0 -7.968,-0.353 -11.803,-1.02 h 0.003 c -1.194,-0.217 -1.11,-1.369 -0.572,-1.71 l -0.002,10e-4 C -8.096,8.948 -4.436,5.269 -1.715,0.954 -1.359,0.382 -0.723,0 0.001,0"
         style="fill:#0e0c16;fill-opacity:1;fill-rule:nonzero;stroke:none"
         id="path3777"
         inkscape:connector-curvature="0" /></g><g
       id="g3779"
       transform="translate(314.7314,319.4922)"><path
         d="m 0,0 c -6.66,2.316 -16.794,-2.896 -16.794,-2.896 1.549,-8.735 5.976,-12.189 10.114,-13.435 H -6.681 C -2.807,-17.645 3.983,-17.396 3.983,-17.396 6.191,-13.449 6.662,-2.317 0,0"
         style="fill:#0e0c16;fill-opacity:1;fill-rule:nonzero;stroke:none"
         id="path3781"
         inkscape:connector-curvature="0" /></g><g
       id="g3783"
       transform="translate(351.7461,319.4922)"><path
         d="M 0,0 C 6.66,2.316 16.796,-2.896 16.796,-2.896 15.244,-11.631 10.818,-15.085 6.68,-16.331 H 6.681 C 2.806,-17.645 -3.984,-17.396 -3.984,-17.396 -6.19,-13.449 -6.661,-2.317 0,0"
         style="fill:#0e0c16;fill-opacity:1;fill-rule:nonzero;stroke:none"
         id="path3785"
         inkscape:connector-curvature="0" /></g><g
       id="g3787"
       transform="translate(436.8831,209.5596)"><path
         d="m 0,0 c -12.313,25.933 -29.482,65.883 -34.098,73.333 -8.165,13.179 -21.09,12.788 -29.557,6.653 -4.654,-3.369 -17.553,-13.126 -20.516,-15.277 -12.6,-9.146 -27.015,-9.061 -40.399,0.39 -16.364,11.55 -32.932,22.296 -29.14,49.861 0.685,4.975 5.546,26.44 11.319,42.324 2.604,7.164 9.066,6.119 12.52,1.617 10.556,-13.753 15.89,-21.773 27.904,-21.773 5.015,0 9.268,1.663 13.333,4.56 -21.279,19.589 -40.901,44.959 -55.858,57.958 -36.911,32.082 -72.13,23.493 -89.41,15.997 -2.383,-1.033 -11.075,-5.416 -17.138,-7.576 -20.612,-7.34 -38.51,-7.157 -50.682,1.306 -8.783,6.106 -13.82,16.042 -13.82,27.26 0,16.582 12.534,33.368 36.489,33.368 9.155,0 27.533,-2.921 47.75,-22.486 4.711,-4.559 12.226,-4.436 16.785,0.275 4.559,4.711 4.436,12.226 -0.275,16.785 -26.224,25.378 -51.517,29.167 -64.26,29.167 -15.797,0 -30.612,-5.424 -41.719,-15.274 -11.937,-10.585 -18.511,-25.442 -18.511,-41.835 0,-9.167 2.12,-18.22 6.134,-26.181 4.132,-8.202 10.315,-15.315 17.875,-20.572 10.473,-7.281 23.131,-10.944 37.151,-10.944 4.054,0.001 8.222,0.31 12.482,0.923 -4.654,-11.094 -8.991,-24.651 -14.996,-41.147 -3.034,-8.337 -4.845,-18.424 -0.683,-29.136 3.902,-10.042 20.335,-40.79 24.443,-45.719 3.644,-4.376 9.217,-7.738 16.632,-8.651 15.966,-1.968 22.248,3.06 23.026,11.993 0.735,8.452 -7.84,19.774 -16.435,34.332 -2.449,4.149 -2.071,6.111 -1.239,7.318 0.776,1.126 2.138,2.141 6.314,1.676 27.427,-3.046 60.851,-37.326 73.788,-96.415 1.984,-9.062 10.133,-20.55 23.839,-20.55 9.101,0 16.875,4.368 16.875,18.924 0,3.993 -0.392,7.647 -1.162,11.7 l 0.001,0.002 c -0.006,0.025 -0.011,0.05 -0.016,0.078 -0.051,0.265 -0.1,0.529 -0.155,0.798 -1,6.018 2.668,8.821 7.904,8.821 h 18.831 c 17.918,0 26.449,-7.866 29.878,-12.562 12.392,-16.979 25.841,-37.671 37.81,-51.474 9.664,-11.146 18.308,-14.8 24.453,-14.8 h 8.578 c 2.09,0 11.127,1.81 11.914,10.576 C 25.033,-22.437 9.564,-20.148 0,0"
         style="fill:#0e0c16;fill-opacity:1;fill-rule:nonzero;stroke:none"
         id="path3789"
         inkscape:connector-curvature="0" /></g><g
       id="g3791"
       transform="translate(378.8501,365.7036)"><path
         d="M 0,0 C -3.489,8.307 -9.732,7.306 -13.118,3.275 -19.616,-4.459 -24.925,-10.411 -30.601,-14.456 -17.317,-26.683 -3.387,-36.662 10.458,-39.962 9.645,-28.826 3.955,-9.423 0,0"
         style="fill:#0e0c16;fill-opacity:1;fill-rule:nonzero;stroke:none"
         id="path3793"
         inkscape:connector-curvature="0" /></g><g
       id="g3795"
       transform="translate(505.0127,321.4062)"><path
         d="m 0,0 c -6.404,0 -12.512,-3.873 -13.405,-4.47 v -39.175 c 0.893,-0.296 4.318,-1.488 10.723,-1.488 11.47,0 18.62,9.533 18.62,24.279 C 15.938,-6.405 8.044,0 0,0 m -2.682,-61.221 c -14.746,0 -29.045,5.214 -30.832,5.811 V 48.706 h 20.109 V 11.17 c 0.893,0.446 7.745,5.064 18.023,5.064 17.427,0 31.576,-13.703 31.576,-36.94 0,-24.278 -15.192,-40.515 -38.876,-40.515"
         style="fill:#231f20;fill-opacity:1;fill-rule:nonzero;stroke:none"
         id="path3797"
         inkscape:connector-curvature="0" /></g><path
       d="m 556.25,335.556 h 20.107 V 262.273 H 556.25 Z m 9.98,9.086 c -6.405,0 -11.469,5.063 -11.469,11.469 0,6.405 5.064,11.47 11.469,11.47 6.405,0 11.469,-5.065 11.469,-11.47 0,-6.406 -5.064,-11.469 -11.469,-11.469"
       style="fill:#231f20;fill-opacity:1;fill-rule:nonzero;stroke:none"
       id="path3799"
       inkscape:connector-curvature="0" /><g
       id="g3801"
       transform="translate(617.7676,260.1855)"><path
         d="m 0,0 c -16.683,0 -27.558,7.597 -28.45,8.342 l 6.851,12.81 c 1.49,-0.746 9.831,-5.96 19.066,-5.96 8.937,0 11.321,3.578 11.321,7.151 0,4.766 -4.022,5.809 -15.79,10.725 -6.405,2.681 -18.173,7.299 -18.173,21.3 0,14.002 11.47,23.087 28.749,23.087 15.938,0 24.28,-6.554 24.28,-6.554 L 21.299,58.538 c -0.745,0.448 -9.236,4.766 -16.683,4.766 -7.447,0 -9.83,-3.723 -9.83,-6.701 0,-4.915 5.064,-6.256 13.257,-9.533 C 18.022,43.048 29.045,38.579 29.045,23.685 29.045,9.087 17.873,0 0,0"
         style="fill:#231f20;fill-opacity:1;fill-rule:nonzero;stroke:none"
         id="path3803"
         inkscape:connector-curvature="0" /></g><g
       id="g3805"
       transform="translate(709.8184,320.0654)"><path
         d="m 0,0 c -0.893,0.298 -4.318,1.489 -10.724,1.489 -11.469,0 -18.619,-9.532 -18.619,-24.28 0,-14.447 7.895,-20.853 15.938,-20.853 6.404,0 12.512,3.873 13.405,4.47 z m 0,-90.116 v 35.301 c -0.893,-0.447 -7.745,-5.065 -18.023,-5.065 -17.426,0 -31.577,13.705 -31.577,36.941 0,24.28 15.193,40.514 38.876,40.514 14.746,0 29.045,-5.213 30.832,-5.807 V -90.116 Z"
         style="fill:#231f20;fill-opacity:1;fill-rule:nonzero;stroke:none"
         id="path3807"
         inkscape:connector-curvature="0" /></g><g
       id="g3809"
       transform="translate(95.2749,124.501)"><path
         d="M 0,0 V -37.108 H -3.874 V 0 H -16.103 V 3.27 H 12.229 V 0 Z"
         style="fill:#58595b;fill-opacity:1;fill-rule:nonzero;stroke:none"
         id="path3811"
         inkscape:connector-curvature="0" /></g><g
       id="g3813"
       transform="translate(132.4429,87.3926)"><path
         d="m 0,0 v 16.949 c 0,3.633 0.06,6.236 -1.695,7.991 -1.03,1.03 -2.785,1.635 -4.541,1.635 -4.298,0 -8.778,-2.724 -8.899,-2.845 V 0 h -3.632 v 43.586 h 3.632 V 26.999 c 0.243,0.242 4.48,2.785 9.263,2.785 2.602,0 5.327,-0.908 6.659,-2.24 2.482,-2.482 2.845,-4.661 2.845,-10.049 V 0 Z"
         style="fill:#58595b;fill-opacity:1;fill-rule:nonzero;stroke:none"
         id="path3815"
         inkscape:connector-curvature="0" /></g><g
       id="g3817"
       transform="translate(155.8071,114.0889)"><path
         d="M 0,0 C -5.024,0 -9.08,-3.754 -9.443,-9.807 H 7.688 C 7.688,-5.509 5.69,0 0,0 M 11.26,-12.894 H -9.564 c 0,-6.418 3.45,-11.018 9.988,-11.018 4.783,0 8.052,2.18 8.414,2.361 l 1.635,-2.785 c -0.121,-0.181 -4.419,-2.967 -10.352,-2.967 -8.475,0 -13.439,6.175 -13.439,14.953 0,9.384 5.206,15.438 13.257,15.438 6.72,0 11.442,-5.086 11.442,-14.045 0,-0.304 -0.121,-1.331 -0.121,-1.937"
         style="fill:#58595b;fill-opacity:1;fill-rule:nonzero;stroke:none"
         id="path3819"
         inkscape:connector-curvature="0" /></g><g
       id="g3821"
       transform="translate(207.5625,122.624)"><path
         d="m 0,0 c -2.058,2.06 -5.69,1.998 -9.202,1.998 h -5.024 v -17.374 h 3.329 c 4.722,0 8.415,-0.121 10.836,2.301 1.514,1.513 2.543,3.45 2.543,6.658 C 2.482,-3.995 1.635,-1.634 0,0 m 3.148,-15.013 c -3.753,-3.753 -8.112,-3.511 -13.802,-3.511 h -3.572 V -35.231 H -18.04 V 5.146 h 9.201 c 4.844,0 8.96,-0.182 11.926,-3.148 2.18,-2.178 3.269,-5.268 3.269,-8.475 0,-4.237 -1.755,-7.083 -3.208,-8.536"
         style="fill:#58595b;fill-opacity:1;fill-rule:nonzero;stroke:none"
         id="path3823"
         inkscape:connector-curvature="0" /></g><g
       id="g3825"
       transform="translate(222.3315,87.3926)"><path
         d="m 0,0 v 3.208 c 0.363,0.363 5.266,4.965 8.233,7.931 8.293,8.294 11.926,12.894 11.926,18.161 0,5.387 -3.149,8.414 -8.536,8.414 -4.964,0 -9.141,-3.45 -9.383,-3.693 l -2.119,2.3 c 0.302,0.424 4.782,4.844 11.986,4.844 7.325,0 12.046,-4.42 12.046,-11.562 0,-6.902 -5.508,-12.654 -11.138,-18.284 C 9.988,8.293 5.024,3.39 5.024,3.39 H 24.517 V 0 Z"
         style="fill:#58595b;fill-opacity:1;fill-rule:nonzero;stroke:none"
         id="path3827"
         inkscape:connector-curvature="0" /></g><g
       id="g3829"
       transform="translate(276.146,122.624)"><path
         d="m 0,0 c -2.058,2.06 -5.691,1.998 -9.202,1.998 h -5.024 v -17.374 h 3.329 c 4.722,0 8.415,-0.121 10.836,2.301 1.514,1.513 2.542,3.45 2.542,6.658 C 2.481,-3.995 1.634,-1.634 0,0 m 3.148,-15.013 c -3.753,-3.753 -8.112,-3.511 -13.803,-3.511 h -3.571 v -16.707 h -3.815 V 5.146 h 9.202 c 4.843,0 8.96,-0.182 11.926,-3.148 2.18,-2.178 3.269,-5.268 3.269,-8.475 0,-4.237 -1.755,-7.083 -3.208,-8.536"
         style="fill:#58595b;fill-opacity:1;fill-rule:nonzero;stroke:none"
         id="path3831"
         inkscape:connector-curvature="0" /></g><g
       id="g3833"
       transform="translate(305.3203,87.3926)"><path
         d="m 0,0 v 40.378 h 21.31 v -3.27 H 3.814 V 22.762 H 20.22 V 19.554 H 3.814 V 3.39 H 21.793 V 0 Z"
         style="fill:#58595b;fill-opacity:1;fill-rule:nonzero;stroke:none"
         id="path3835"
         inkscape:connector-curvature="0" /></g><g
       id="g3837"
       transform="translate(353.1416,87.3926)"><path
         d="M 0,0 -8.536,12.349 -17.071,0 h -4.178 l 10.654,14.892 -9.927,14.166 h 4.479 l 7.81,-11.502 7.869,11.502 H 3.753 L -6.114,14.952 4.419,0 Z"
         style="fill:#58595b;fill-opacity:1;fill-rule:nonzero;stroke:none"
         id="path3839"
         inkscape:connector-curvature="0" /></g><g
       id="g3841"
       transform="translate(374.9326,86.7861)"><path
         d="m 0,0 c -7.991,0 -13.742,5.51 -13.742,14.529 0,9.385 5.933,15.862 14.469,15.862 5.085,0 8.535,-2.604 8.777,-2.847 L 7.87,25.003 c -0.605,0.362 -3.087,2.118 -7.325,2.118 -6.296,0 -10.533,-5.206 -10.533,-12.047 0,-7.143 4.298,-11.683 10.17,-11.683 4.601,0 7.688,1.998 8.172,2.24 L 9.928,2.907 C 9.686,2.604 5.509,0 0,0"
         style="fill:#58595b;fill-opacity:1;fill-rule:nonzero;stroke:none"
         id="path3843"
         inkscape:connector-curvature="0" /></g><g
       id="g3845"
       transform="translate(409.6782,87.3926)"><path
         d="m 0,0 v 16.949 c 0,3.633 0.061,6.236 -1.694,7.991 -1.03,1.03 -2.785,1.635 -4.541,1.635 -4.298,0 -8.777,-2.724 -8.899,-2.845 V 0 h -3.632 v 43.586 h 3.632 V 26.999 c 0.242,0.242 4.48,2.785 9.262,2.785 2.604,0 5.328,-0.908 6.66,-2.24 C 3.27,25.062 3.632,22.883 3.632,17.495 V 0 Z"
         style="fill:#58595b;fill-opacity:1;fill-rule:nonzero;stroke:none"
         id="path3847"
         inkscape:connector-curvature="0" /></g><g
       id="g3849"
       transform="translate(437.7656,102.1631)"><path
         d="m 0,0 h -1.635 c -7.446,0 -12.894,-1.695 -12.894,-6.598 0,-2.906 1.877,-5.57 6.417,-5.57 3.754,0 7.324,1.997 8.112,2.361 z m 0.302,-14.771 v 2.18 c -0.242,-0.121 -4.116,-2.786 -9.261,-2.786 -5.57,0 -9.324,3.572 -9.324,8.839 0,9.202 11.745,9.505 16.769,9.505 H 0 v 1.089 c 0,2.725 -0.122,4.722 -1.454,6.114 -0.907,0.908 -2.542,1.695 -5.508,1.695 -4.48,0 -7.627,-2.058 -8.052,-2.301 l -1.513,2.543 c 0.242,0.243 3.995,2.967 9.989,2.967 3.693,0 6.175,-1.09 7.869,-2.785 1.938,-1.937 2.302,-3.935 2.302,-8.354 v -18.706 z"
         style="fill:#58595b;fill-opacity:1;fill-rule:nonzero;stroke:none"
         id="path3851"
         inkscape:connector-curvature="0" /></g><g
       id="g3853"
       transform="translate(468.2129,87.3926)"><path
         d="m 0,0 v 16.949 c 0,3.633 0.06,6.236 -1.694,7.991 -1.031,1.03 -2.785,1.635 -4.541,1.635 -4.298,0 -8.778,-2.724 -8.9,-2.845 V 0 h -3.631 v 29.058 h 3.45 v -2.121 c 0.485,0.304 4.662,2.847 9.566,2.847 2.057,0 4.782,-0.484 6.719,-2.422 2.239,-2.24 2.664,-4.479 2.664,-9.867 L 3.633,0 Z"
         style="fill:#58595b;fill-opacity:1;fill-rule:nonzero;stroke:none"
         id="path3855"
         inkscape:connector-curvature="0" /></g><g
       id="g3857"
       transform="translate(499.1445,112.5752)"><path
         d="m 0,0 c -0.423,0.182 -2.845,1.393 -6.598,1.393 -6.356,0 -10.533,-4.964 -10.533,-12.229 0,-6.659 3.631,-11.198 9.02,-11.198 4.237,0 7.688,2.542 8.111,2.785 z m 0.969,-35.716 c -2.542,-2.543 -5.57,-3.209 -9.444,-3.209 -6.476,0 -10.472,3.27 -10.775,3.571 l 1.634,2.543 c 0.424,-0.242 3.936,-2.905 8.899,-2.905 3.571,0 5.57,0.907 6.841,2.239 C -0.06,-31.66 0,-29.662 0,-25.001 v 2.239 c -0.545,-0.302 -3.874,-2.482 -8.475,-2.482 -7.264,0 -12.41,5.995 -12.41,14.348 0,8.959 6.054,15.498 14.468,15.498 5.086,0 9.505,-2.241 10.11,-2.483 v -27.726 c 0,-5.145 -0.545,-7.87 -2.724,-10.109"
         style="fill:#58595b;fill-opacity:1;fill-rule:nonzero;stroke:none"
         id="path3859"
         inkscape:connector-curvature="0" /></g><g
       id="g3861"
       transform="translate(522.9951,114.0889)"><path
         d="M 0,0 C -5.024,0 -9.081,-3.754 -9.444,-9.807 H 7.688 C 7.688,-5.509 5.69,0 0,0 M 11.26,-12.894 H -9.565 c 0,-6.418 3.451,-11.018 9.988,-11.018 4.783,0 8.052,2.18 8.415,2.361 l 1.636,-2.785 c -0.122,-0.181 -4.421,-2.967 -10.353,-2.967 -8.475,0 -13.439,6.175 -13.439,14.953 0,9.384 5.207,15.438 13.257,15.438 6.719,0 11.442,-5.086 11.442,-14.045 0,-0.304 -0.121,-1.331 -0.121,-1.937"
         style="fill:#58595b;fill-opacity:1;fill-rule:nonzero;stroke:none"
         id="path3863"
         inkscape:connector-curvature="0" /></g><g
       id="g3865"
       transform="translate(580.2578,87.3926)"><path
         d="M 0,0 -20.097,34.687 -19.977,0 h -3.571 v 40.378 h 4.236 L 0.97,5.388 0.848,40.378 H 4.42 V 0 Z"
         style="fill:#58595b;fill-opacity:1;fill-rule:nonzero;stroke:none"
         id="path3867"
         inkscape:connector-curvature="0" /></g><g
       id="g3869"
       transform="translate(605.8027,114.0889)"><path
         d="M 0,0 C -5.024,0 -9.081,-3.754 -9.445,-9.807 H 7.687 C 7.687,-5.509 5.689,0 0,0 M 11.26,-12.894 H -9.565 c 0,-6.418 3.451,-11.018 9.988,-11.018 4.783,0 8.052,2.18 8.415,2.361 l 1.635,-2.785 c -0.122,-0.181 -4.42,-2.967 -10.353,-2.967 -8.475,0 -13.439,6.175 -13.439,14.953 0,9.384 5.207,15.438 13.258,15.438 6.719,0 11.442,-5.086 11.442,-14.045 0,-0.304 -0.121,-1.331 -0.121,-1.937"
         style="fill:#58595b;fill-opacity:1;fill-rule:nonzero;stroke:none"
         id="path3871"
         inkscape:connector-curvature="0" /></g><g
       id="g3873"
       transform="translate(633.2832,86.7256)"><path
         d="m 0,0 c -2.664,0 -4.601,0.667 -5.993,2.06 -1.694,1.694 -1.694,3.995 -1.694,7.505 v 17.193 h -5.085 v 2.967 h 5.085 v 8.233 h 3.632 V 29.725 H 5.268 V 26.758 H -4.055 V 10.292 c 0,-3.995 -0.303,-7.022 4.539,-7.022 2.241,0 3.995,0.847 4.298,0.908 L 5.751,1.394 C 5.268,1.15 3.269,0 0,0"
         style="fill:#58595b;fill-opacity:1;fill-rule:nonzero;stroke:none"
         id="path3875"
         inkscape:connector-curvature="0" /></g><g
       id="g3877"
       transform="translate(675.4766,87.3926)"><path
         d="M 0,0 H -4.48 L -11.806,25.849 -19.251,0 h -4.48 l -8.112,29.058 h 3.693 l 6.84,-25.367 7.264,25.367 h 4.843 L -2.06,3.691 4.903,29.058 h 3.572 z"
         style="fill:#58595b;fill-opacity:1;fill-rule:nonzero;stroke:none"
         id="path3879"
         inkscape:connector-curvature="0" /></g><g
       id="g3881"
       transform="translate(701.6865,114.0283)"><path
         d="m 0,0 c -5.811,0 -9.443,-4.782 -9.443,-11.985 0,-7.327 4.056,-12.169 9.504,-12.169 5.993,0 9.444,4.662 9.444,11.926 C 9.505,-4.904 5.388,0 0,0 m -0.061,-27.362 c -7.929,0 -13.135,5.931 -13.135,15.255 0,9.202 5.084,15.255 13.439,15.255 7.869,0 13.014,-5.872 13.014,-15.497 0,-9.082 -5.145,-15.013 -13.318,-15.013"
         style="fill:#58595b;fill-opacity:1;fill-rule:nonzero;stroke:none"
         id="path3883"
         inkscape:connector-curvature="0" /></g><g
       id="g3885"
       transform="translate(736.6133,113.7256)"><path
         d="m 0,0 c -0.423,0.062 -1.21,0.182 -2.361,0.182 -6.174,0 -8.595,-4.843 -8.837,-5.084 v -21.431 h -3.633 V 2.725 h 3.45 V -1.09 c 0.303,0.363 3.27,4.602 9.202,4.602 2.179,0 2.845,-0.424 3.028,-0.485 z"
         style="fill:#58595b;fill-opacity:1;fill-rule:nonzero;stroke:none"
         id="path3887"
         inkscape:connector-curvature="0" /></g><g
       id="g3889"
       transform="translate(761.3125,87.3926)"><path
         d="M 0,0 -14.771,15.376 V 0 h -3.633 v 43.586 h 3.633 V 16.164 l 13.56,12.894 H 3.57 L -10.715,15.86 4.782,0 Z"
         style="fill:#58595b;fill-opacity:1;fill-rule:nonzero;stroke:none"
         id="path3891"
         inkscape:connector-curvature="0" /></g></g></svg>